<svg xmlns="http://www.w3.org/2000/svg" width="34.215" height="29.904" viewBox="0 0 34.215 29.904">
  <defs>
    <style>
      .cls-1 {
        fill: #fff;
      }
    </style>
  </defs>
  <g id="pawprint" transform="translate(0 0)">
    <path id="Path_29" data-name="Path 29" class="cls-1" d="M83.032,185.786a8.331,8.331,0,0,0-14.029,0l-3.71,5.788a5.273,5.273,0,0,0,6.562,7.673l.068-.03a10.366,10.366,0,0,1,8.256.03,5.244,5.244,0,0,0,2.116.448,5.31,5.31,0,0,0,1.18-.134,5.274,5.274,0,0,0,3.266-7.987Zm1.754,10.757a3.249,3.249,0,0,1-3.8.868,12.376,12.376,0,0,0-9.938,0l-.045.02a3.268,3.268,0,0,1-4.023-4.774l3.71-5.788a6.326,6.326,0,0,1,10.652,0l3.71,5.787a3.249,3.249,0,0,1-.267,3.888Zm0,0" transform="translate(-60.152 -169.79)"/>
    <path id="Path_30" data-name="Path 30" class="cls-1" d="M6.141,108.273a4.045,4.045,0,0,0,2.361-2.5,5.226,5.226,0,0,0-.092-3.6,5.229,5.229,0,0,0-2.348-2.735,4.045,4.045,0,0,0-3.429-.276,4.631,4.631,0,0,0-2.267,6.108,4.885,4.885,0,0,0,4.394,3.267,3.83,3.83,0,0,0,1.382-.256Zm-3.9-3.731a2.645,2.645,0,0,1,1.116-3.516,1.861,1.861,0,0,1,.671-.123,2.262,2.262,0,0,1,1.079.29,3.221,3.221,0,0,1,1.434,1.693,3.219,3.219,0,0,1,.072,2.217,2.074,2.074,0,0,1-1.188,1.3h0a2.644,2.644,0,0,1-3.183-1.86Zm0,0" transform="translate(0 -92.285)"/>
    <path id="Path_31" data-name="Path 31" class="cls-1" d="M129.439,11.454c2.771,0,5.026-2.569,5.026-5.726S132.21,0,129.439,0s-5.025,2.569-5.025,5.727S126.668,11.454,129.439,11.454Zm0-9.448c1.665,0,3.02,1.67,3.02,3.722s-1.355,3.72-3.02,3.72-3.02-1.669-3.02-3.72,1.355-3.722,3.02-3.722Zm0,0" transform="translate(-116.1 0)"/>
    <path id="Path_32" data-name="Path 32" class="cls-1" d="M287.222,50.424h0a4.1,4.1,0,0,0,1.294.209,5.209,5.209,0,0,0,4.742-3.732,5.616,5.616,0,0,0-.08-3.874,4.248,4.248,0,0,0-6.3-2.093A5.616,5.616,0,0,0,284.5,43.99c-.912,2.745.31,5.632,2.725,6.435Zm-.822-5.8a3.612,3.612,0,0,1,1.519-1.972,2.247,2.247,0,0,1,3.4,1.13,3.611,3.611,0,0,1,.036,2.489c-.564,1.7-2.134,2.706-3.5,2.252S285.836,46.318,286.4,44.622Zm0,0" transform="translate(-265.203 -37.564)"/>
    <path id="Path_33" data-name="Path 33" class="cls-1" d="M384.162,171.815h0a4.925,4.925,0,0,0-5.814,7.855,3.929,3.929,0,0,0,2.36.762,5.081,5.081,0,0,0,4.013-2.125A4.632,4.632,0,0,0,384.162,171.815Zm-1.054,5.3a2.362,2.362,0,1,1-3.706-2.74,3.079,3.079,0,0,1,2.388-1.319,1.959,1.959,0,0,1,1.179.375A2.646,2.646,0,0,1,383.108,177.112Zm0,0" transform="translate(-351.56 -159.623)"/>
  </g>
</svg>
