<svg xmlns="http://www.w3.org/2000/svg" width="18.044" height="18.077" viewBox="0 0 18.044 18.077">
  <defs>
    <style>
      .cls-1 {
        fill: none;
        stroke: #fff;
        stroke-linecap: round;
        stroke-linejoin: round;
        stroke-width: 2px;
      }
    </style>
  </defs>
  <path id="phone" class="cls-1" d="M18.155,14.035v2.42A1.613,1.613,0,0,1,16.4,18.068a15.963,15.963,0,0,1-6.961-2.476,15.73,15.73,0,0,1-4.84-4.84A15.963,15.963,0,0,1,2.118,3.758,1.613,1.613,0,0,1,3.724,2h2.42A1.613,1.613,0,0,1,7.757,3.387a10.357,10.357,0,0,0,.565,2.267,1.613,1.613,0,0,1-.363,1.7L6.934,8.381a12.906,12.906,0,0,0,4.84,4.84L12.8,12.2a1.613,1.613,0,0,1,1.7-.363,10.357,10.357,0,0,0,2.267.565,1.613,1.613,0,0,1,1.387,1.637Z" transform="translate(-1.111 -1)"/>
</svg>
